# xmcd
#
# Track frame offsets:
#	150
#	16325
#	33095
#	48355
#	62152
#	76965
#	91867
#	105570
#	117147
#	133117
#
# Disc length: 1962 seconds
#
# Revision: 0
# Processed by: cddbd v1.5.1PL0 Copyright (c) Steve Scherf et al.
# Submitted via: dBpowerAMP V4.0
#
DISCID=7307a80a
DTITLE=George Strait - Always Never The Same
DYEAR=1999
DGENRE=Country
TTITLE0=Meanwhile
TTITLE1=Write This Down
TTITLE2=That's The Truth
TTITLE3=What Do You Say To That
TTITLE4=Peace Of Mind
TTITLE5=That's Where I Want To Take Our Love
TTITLE6=Always Never The Same
TTITLE7=One Of You
TTITLE8=I Look At You
TTITLE9=4 Minus 3 Equals Zero
EXTD=
EXTT0=
EXTT1=
EXTT2=
EXTT3=
EXTT4=
EXTT5=
EXTT6=
EXTT7=
EXTT8=
EXTT9=
PLAYORDER=
